P2
# CREATOR: GIMP PNM Filter Version 1.1
64 64
255
167
164
161
160
164
177
174
137
96
108
110
110
110
118
126
131
135
136
134
136
138
138
137
137
139
139
138
135
137
135
139
136
138
135
134
133
134
132
126
113
125
155
165
157
159
161
158
158
160
162
184
224
202
102
123
125
126
126
129
127
130
129
121
149
161
162
161
159
167
176
170
132
92
104
110
108
108
116
125
130
132
134
135
135
136
138
136
137
136
135
136
133
136
133
137
135
135
134
133
132
132
132
126
116
110
145
164
162
164
164
160
160
159
159
156
216
228
137
115
123
125
123
126
128
130
136
105
43
161
163
162
162
171
170
165
134
92
104
110
107
106
117
124
129
133
134
135
135
136
137
137
136
137
136
136
135
136
133
139
137
136
134
134
131
133
132
128
121
109
129
159
169
166
167
164
162
159
157
156
174
225
214
106
120
124
127
129
132
142
96
45
50
162
164
164
169
173
164
167
132
89
104
109
108
108
114
125
128
131
133
133
134
134
135
133
135
138
131
128
132
130
130
133
135
136
131
132
131
131
132
127
122
111
127
156
167
166
164
164
161
160
159
157
148
210
229
161
115
126
125
127
138
93
46
46
54
163
166
170
174
170
164
166
132
89
103
108
106
107
116
123
126
131
132
130
132
134
133
136
133
134
130
127
128
128
126
131
133
136
132
133
131
130
131
129
122
112
125
149
161
164
163
162
162
162
161
158
153
161
226
231
115
118
127
136
93
41
56
55
52
167
167
172
163
164
165
166
130
88
103
108
106
106
115
124
126
128
129
131
133
131
134
133
132
133
128
132
137
142
137
121
126
131
132
134
132
131
131
127
119
115
122
146
155
160
161
159
160
160
158
152
150
142
202
232
188
106
124
95
42
51
58
52
46
166
173
161
144
164
166
168
133
87
100
108
107
108
117
125
127
130
131
133
133
132
131
132
135
150
151
164
175
187
185
195
176
140
120
132
132
131
129
125
120
113
121
147
148
155
160
157
158
157
151
148
146
146
153
225
235
140
94
41
47
56
54
46
48
170
172
138
129
167
170
169
133
82
96
102
103
108
115
122
126
127
129
131
131
138
145
131
139
140
151
156
168
175
183
190
193
206
181
119
126
127
125
120
115
109
121
148
150
152
155
157
150
149
150
146
145
145
143
186
233
201
31
46
56
53
51
50
50
179
159
94
126
169
170
167
132
77
93
101
102
106
111
118
121
126
128
129
141
112
123
125
137
134
140
146
160
180
185
189
196
198
203
204
132
112
119
118
114
108
118
151
155
149
147
151
149
146
149
147
146
148
149
147
226
64
44
53
56
49
51
51
42
172
129
80
128
169
173
166
131
76
95
103
103
104
111
119
119
123
126
131
129
113
119
130
131
139
139
145
154
170
186
193
197
202
200
200
218
180
97
113
108
106
116
155
162
154
129
131
154
148
151
147
149
150
153
165
64
46
51
53
46
55
52
59
88
154
91
87
129
168
173
166
127
80
95
102
105
105
112
117
122
125
125
128
112
121
124
125
127
136
139
142
149
169
189
196
187
195
210
219
218
225
179
89
103
101
115
153
159
157
121
79
142
151
151
147
149
149
158
102
40
50
56
47
54
50
70
80
162
114
91
88
128
166
173
167
126
80
98
101
104
105
112
119
121
126
128
112
116
122
117
121
132
142
144
147
149
164
182
176
205
217
213
210
215
218
235
128
87
94
113
153
160
158
131
44
111
153
149
147
150
150
144
44
47
57
48
57
48
61
90
154
149
91
94
89
124
165
172
166
129
79
96
104
103
106
111
120
121
127
119
117
116
120
123
131
136
143
146
141
147
156
175
208
208
208
202
212
210
214
216
231
152
72
110
153
160
160
129
50
64
134
153
145
150
163
57
42
59
53
52
49
56
71
148
150
170
93
95
91
126
164
170
167
128
80
94
101
105
103
112
118
116
148
104
115
116
119
126
137
145
142
142
132
137
189
199
201
194
200
212
212
212
213
213
219
236
101
103
150
161
159
130
52
41
88
135
145
149
104
42
54
55
51
53
55
49
145
143
165
169
94
92
87
122
164
169
167
130
78
92
98
100
106
110
115
113
161
108
115
115
122
133
142
137
140
120
146
196
186
192
187
204
203
206
207
209
210
215
215
221
219
74
150
158
160
131
52
37
85
216
221
231
34
51
57
57
54
55
42
121
147
164
165
164
93
96
92
122
164
172
167
128
74
90
101
103
104
109
118
156
135
106
117
115
130
129
127
137
115
164
183
173
184
183
198
194
199
198
206
207
207
209
214
212
228
127
150
162
160
127
27
134
203
221
223
238
84
49
56
50
47
57
82
157
156
165
165
163
100
102
98
122
165
173
170
131
79
94
103
106
106
112
116
178
121
105
110
122
124
127
136
118
162
164
171
180
190
188
189
184
191
197
203
204
208
192
207
210
210
221
155
160
154
112
186
199
221
212
210
234
91
55
52
48
56
39
154
152
166
163
162
161
104
102
101
126
164
176
174
134
79
95
104
105
103
111
99
193
122
107
105
114
124
126
122
156
155
150
169
183
173
188
175
183
187
188
194
195
185
196
203
203
203
198
201
150
185
209
205
215
208
211
218
242
55
53
49
47
52
107
154
165
164
163
161
159
104
102
102
125
167
179
178
134
78
95
103
102
102
107
89
217
138
112
110
115
126
122
152
150
141
159
163
173
177
170
181
182
179
187
189
187
193
198
192
188
191
181
199
201
201
212
210
206
212
203
216
240
22
52
47
53
74
157
156
167
164
163
161
161
101
99
100
124
168
179
176
135
81
97
103
102
102
106
97
213
155
131
106
116
114
145
148
132
157
153
152
165
175
174
174
178
174
171
179
186
188
186
186
175
178
192
196
211
205
204
207
210
209
168
185
152
48
53
47
54
127
153
166
166
165
163
164
162
99
97
97
127
169
177
175
137
81
97
102
101
101
104
100
205
162
142
110
110
146
138
128
149
145
149
153
163
161
167
172
169
165
170
172
174
173
175
164
181
193
206
203
199
203
210
209
218
173
167
184
82
49
48
51
89
158
159
166
163
164
163
162
162
101
100
104
129
169
178
177
139
77
96
100
100
101
101
106
215
174
157
120
135
135
126
145
141
138
146
158
135
131
132
146
132
165
164
166
149
159
163
187
199
204
194
201
205
210
210
213
207
137
108
216
18
52
56
51
141
152
165
163
162
162
161
162
160
103
102
106
133
170
180
177
140
76
93
101
103
102
103
96
219
190
141
125
125
118
143
135
132
136
149
131
131
112
88
153
105
90
89
54
53
128
180
203
201
202
199
206
206
211
216
161
102
92
195
93
52
47
53
76
155
162
165
165
162
160
161
159
159
107
102
107
132
171
178
177
139
78
95
100
103
102
100
75
221
196
132
144
109
141
133
131
134
143
123
137
100
81
57
112
89
98
79
24
135
175
194
200
197
199
199
203
215
172
80
97
136
201
85
43
50
51
51
131
153
169
166
165
164
163
160
160
158
110
106
104
132
169
177
176
142
77
93
99
103
101
103
98
169
203
159
128
136
130
127
129
134
131
116
69
67
50
90
65
105
68
73
143
183
189
190
189
190
197
205
163
93
123
166
177
200
90
47
56
50
54
63
155
163
170
169
167
164
162
161
160
159
111
106
102
125
170
179
177
144
75
92
99
100
101
105
109
103
220
187
119
132
125
131
131
133
86
79
60
88
34
73
63
61
98
119
189
198
187
187
181
190
193
186
72
108
126
161
198
71
44
53
58
46
54
109
142
174
169
168
169
165
164
163
161
158
111
107
99
119
168
178
181
144
74
89
99
100
101
107
115
102
181
196
129
116
128
129
128
91
65
88
53
84
60
49
66
77
105
162
188
183
181
182
180
197
202
207
125
85
110
158
58
46
55
60
51
50
57
134
151
173
169
170
168
166
166
163
161
159
109
106
98
118
168
180
179
145
75
92
102
104
102
108
116
110
174
169
114
122
129
133
73
68
45
69
67
62
102
52
52
120
154
194
193
166
185
169
197
207
206
212
155
52
81
168
45
48
57
63
46
50
92
138
159
167
171
167
167
169
165
164
163
158
108
106
98
118
167
179
181
145
80
92
105
108
104
113
124
119
138
157
119
128
123
64
51
67
62
49
58
96
81
32
138
181
162
186
181
172
164
186
201
209
212
219
190
68
45
162
53
55
61
60
48
45
135
150
163
156
154
160
162
167
165
162
161
157
107
103
96
115
167
181
181
146
80
96
104
108
105
114
119
119
118
134
134
134
75
67
43
63
62
58
57
79
52
119
165
187
167
192
164
164
179
186
203
207
212
219
210
98
39
144
59
58
62
55
54
66
146
166
168
166
163
159
150
151
152
155
159
157
104
102
98
115
167
181
181
145
80
93
105
106
106
113
122
132
125
111
139
100
77
79
34
77
43
67
60
52
99
159
175
183
192
120
138
170
188
183
195
201
207
216
214
95
36
123
81
64
68
51
49
111
141
168
166
165
169
167
160
155
151
148
147
149
106
107
99
112
167
181
184
148
80
95
106
105
104
110
118
149
110
97
108
72
69
100
40
60
59
50
79
64
158
190
171
192
133
146
138
81
122
175
186
197
197
149
107
98
46
97
102
65
59
53
52
137
152
166
162
161
162
163
160
160
162
156
149
138
102
100
93
108
166
183
181
149
77
91
104
101
99
128
159
159
131
68
72
100
101
50
75
38
86
52
26
138
184
204
177
63
52
49
62
75
136
151
181
213
123
68
50
60
46
88
122
64
51
54
61
145
164
162
160
161
161
161
159
158
159
152
147
143
101
98
86
102
167
184
185
147
80
97
104
107
95
117
169
129
71
72
63
60
121
35
47
70
46
47
81
163
194
197
100
51
97
64
232
105
115
140
187
183
71
90
131
46
42
81
133
70
51
51
104
147
164
160
158
158
157
159
156
154
150
143
133
144
106
99
86
100
167
186
187
149
88
103
111
83
107
164
148
65
75
63
80
89
123
65
45
50
49
40
153
184
194
120
142
137
125
151
169
153
128
135
198
176
139
147
83
65
49
72
143
72
48
53
133
155
161
158
155
161
159
156
151
146
140
146
178
193
102
92
80
92
166
187
190
153
85
102
113
139
129
75
52
61
117
80
65
101
103
75
48
49
40
101
172
199
95
138
158
162
159
159
170
161
138
130
188
208
157
139
113
80
48
63
159
62
52
57
142
163
159
156
157
155
155
152
146
136
172
199
197
196
93
85
71
89
165
184
188
153
83
100
129
139
116
85
71
106
109
42
61
95
99
105
51
47
61
146
215
67
119
137
157
173
182
181
181
160
146
132
174
214
169
143
132
87
55
53
175
44
49
90
145
164
159
157
157
153
151
146
137
173
204
201
196
201
81
77
68
86
165
183
185
153
84
101
110
111
99
87
72
115
62
49
50
56
45
126
74
35
106
189
110
69
125
135
151
166
182
183
176
156
147
132
163
221
165
149
135
75
55
44
181
42
53
121
159
160
159
155
152
151
149
142
151
202
199
201
206
211
79
77
63
83
163
179
183
152
73
124
137
85
116
70
93
124
84
59
40
81
64
160
92
35
142
194
29
72
119
134
148
161
172
175
171
149
136
127
152
228
158
147
133
55
64
41
163
66
48
144
164
161
159
156
151
149
145
135
193
200
200
212
216
210
84
77
57
76
163
182
185
153
78
115
124
82
99
73
88
131
70
52
42
97
118
64
32
124
167
63
45
84
116
134
143
154
159
166
163
135
136
137
145
229
153
145
119
41
68
44
142
90
71
150
165
158
155
156
154
151
142
158
204
200
212
214
213
215
84
79
65
92
164
180
185
154
91
96
116
82
109
82
60
112
132
39
59
37
92
41
73
191
124
37
48
97
117
131
142
152
156
162
163
140
126
107
114
192
151
142
75
49
67
55
119
95
106
155
161
157
156
154
151
148
137
185
203
208
214
215
216
215
80
80
69
118
167
176
186
157
83
97
133
62
70
77
82
114
126
72
119
45
75
143
119
159
32
63
49
106
123
131
138
148
152
160
164
158
144
161
181
187
152
132
44
54
80
61
102
105
136
158
160
157
154
153
151
147
137
199
204
216
213
217
217
217
74
73
65
120
167
177
186
158
81
102
129
72
86
66
73
87
92
119
81
66
142
170
121
44
51
64
43
107
120
132
139
145
145
152
155
152
156
206
199
187
146
85
51
57
80
59
79
125
148
160
159
154
153
150
150
145
144
203
212
215
215
215
219
219
62
68
66
116
169
181
187
158
78
114
125
60
69
65
95
90
77
118
86
167
196
105
84
67
43
67
46
99
106
134
135
144
147
116
126
132
127
128
136
129
146
41
52
63
82
65
60
143
151
162
157
152
154
152
149
144
146
207
218
216
216
218
221
220
58
66
71
121
170
183
187
155
120
99
115
76
44
85
116
79
105
83
135
172
121
137
43
46
52
60
57
86
94
124
129
138
151
143
125
130
154
170
166
152
83
52
47
61
86
71
47
163
154
162
158
157
153
151
150
142
153
218
218
218
219
221
220
217
54
56
72
112
165
186
188
161
67
127
83
90
63
66
131
116
83
127
141
158
168
47
58
54
55
61
59
81
74
109
121
133
141
146
136
131
126
133
148
134
44
50
57
64
84
73
51
170
157
160
159
159
156
152
147
140
155
225
220
223
222
216
213
214
51
50
90
119
159
183
186
158
73
118
79
73
65
38
141
133
110
108
103
185
52
53
58
54
52
55
61
58
65
81
109
130
140
143
149
155
173
166
158
71
45
57
59
65
87
76
50
177
155
162
158
158
156
151
146
134
157
228
222
221
219
219
217
216
51
46
85
122
160
182
185
159
74
91
55
82
69
40
125
71
132
129
121
87
59
54
64
54
54
49
58
59
62
60
65
110
132
145
155
172
173
174
148
45
55
64
54
73
89
78
54
179
153
159
156
155
155
148
143
131
174
228
218
222
220
214
213
173
50
42
69
108
164
180
183
150
119
128
50
65
63
33
142
82
97
110
154
135
57
51
77
53
47
54
50
61
60
74
80
99
118
130
147
160
167
162
154
63
52
60
53
74
94
85
62
174
115
128
137
145
152
148
140
119
204
221
217
217
209
159
60
41
82
54
59
83
157
177
180
172
89
89
41
76
65
69
94
110
116
106
113
100
150
55
73
63
49
53
52
59
58
66
116
131
132
140
148
148
148
173
202
219
170
75
41
76
91
83
74
160
134
125
116
109
111
120
123
110
215
212
216
212
161
52
62
87
142
111
78
60
154
176
181
152
134
59
38
109
57
101
49
107
107
85
123
133
99
97
56
62
50
52
58
56
70
60
113
126
131
142
145
145
157
180
196
200
209
225
139
51
84
74
80
156
150
145
140
130
115
98
121
83
211
217
217
156
55
82
89
88
136
156
116
58
155
182
182
159
162
36
51
54
72
65
79
79
58
82
110
147
96
118
70
64
55
54
63
64
91
54
117
123
139
142
144
148
164
174
185
193
203
213
223
157
51
75
87
150
153
148
146
142
134
125
132
126
222
221
203
65
96
92
110
94
72
163
155
53
157
184
185
161
116
35
58
54
44
92
47
64
87
83
100
121
157
61
109
57
56
47
65
53
110
60
110
138
139
144
145
151
160
168
178
187
198
208
216
233
95
62
94
144
151
149
146
144
139
132
139
167
223
220
150
86
97
114
96
106
41
162
167
42
158
185
186
160
104
46
58
49
54
78
62
62
65
98
94
127
130
56
115
58
67
50
56
57
109
70
117
134
141
143
145
151
157
164
175
184
194
207
217
222
214
26
104
148
153
148
145
139
135
125
185
212
224
215
103
97
114
100
101
105
30
150
171
41
158
186
188
161
87
56
46
40
99
63
60
47
49
71
104
120
139
148
84
56
61
56
54
80
130
77
119
138
141
141
143
149
153
163
169
182
192
205
215
220
236
64
113
154
150
147
144
138
130
145
227
217
225
170
95
102
116
94
109
100
28
142
174
51
156
183
181
162
96
47
49
61
60
67
60
48
50
76
73
138
97
94
98
92
88
56
55
107
134
75
125
138
146
142
139
145
150
159
166
175
190
201
212
218
223
122
135
153
147
144
144
139
130
164
220
219
217
129
105
108
104
100
102
90
34
121
176
61
151
184
186
164
95
48
49
68
53
59
49
54
60
79
94
124
114
84
57
54
60
50
72
120
135
74
135
144
145
143
141
143
149
157
163
172
183
198
209
216
220
189
131
152
149
147
145
139
136
149
199
223
193
115
101
102
89
106
96
97
36
107
174
77
146
182
185
159
114
45
61
45
62
64
56
52
65
71
73
77
68
146
41
49
46
50
94
126
104
99
141
145
149
145
142
143
148
154
159
167
178
193
205
216
220
229
125
95
119
139
146
145
152
145
158
229
165
103
97
80
105
94
99
82
34
95
184
89
141
180
185
167
100
52
45
61
58
57
61
46
58
74
128
84
92
58
46
47
42
70
117
126
59
131
139
146
146
146
143
140
144
151
156
164
174
187
201
213
219
225
131
91
81
77
79
95
144
161
188
219
114
73
88
99
96
97
102
61
77
104
191
107
139
181
186
159
99
46
56
52
52
62
63
47
51
54
90
138
112
41
43
42
51
96
126
72
98
139
142
143
146
148
146
142
143
144
154
161
167
182
196
208
216
221
180
102
106
91
65
39
123
189
212
170
60
79
89
101
85
108
89
60
94
129
187
127
136
181
188
151
100
47
50
54
49
62
63
59
66
64
68
97
86
45
45
41
83
111
64
85
133
138
143
144
144
148
147
145
144
143
150
156
166
173
188
203
213
219
228
81
110
102
88
73
127
218
156
60
69
79
106
77
93
110
85
66
68
106
180
134
131
182
189
167
61
49
58
50
64
74
62
98
69
55
76
122
78
45
45
48
61
71
116
128
133
137
140
143
145
147
152
148
146
146
146
155
162
171
185
196
209
218
227
111
101
110
103
112
122
142
78
82
79
112
78
73
116
107
66
62
57
78
193
166
130
182
190
152
57
50
56
58
64
82
44
118
50
81
87
77
80
43
46
81
112
120
129
131
134
135
140
142
145
145
149
152
151
149
149
154
158
168
179
190
202
214
218
146
96
110
120
121
116
103
114
89
101
77
75
106
122
86
59
55
51
60
210
194
127
181
188
151
52
51
64
71
68
87
65
81
88
91
62
64
95
68
76
103
117
126
131
131
135
136
140
139
143
145
150
149
151
155
153
157
161
169
174
186
198
208
216
192
87
101
119
131
122
135
114
94
84
88
97
134
96
53
58
93
